<svg width="1600" height="1000" viewBox="0 0 1600 1000" fill="none" xmlns="http://www.w3.org/2000/svg">
  <rect width="1600" height="1000" fill="#121A21"/>
  <rect x="0" y="0" width="260" height="1000" fill="#101820"/>
  <text x="32" y="76" fill="#EEF4F2" font-family="Arial" font-size="26" font-weight="700">Firewall Drill</text>
  <text x="32" y="140" fill="#AAB8BE" font-family="Arial" font-size="20">Drill</text>
  <text x="32" y="190" fill="#AAB8BE" font-family="Arial" font-size="20">Policies</text>
  <text x="32" y="240" fill="#AAB8BE" font-family="Arial" font-size="20">Runs</text>
  <rect x="300" y="64" width="1240" height="180" rx="14" fill="#1B2730" stroke="#3B4B57"/>
  <text x="336" y="132" fill="#EEF4F2" font-family="Arial" font-size="42" font-weight="700">Break the payout before the agent signs it</text>
  <text x="336" y="182" fill="#AAB8BE" font-family="Arial" font-size="22">CAW treasury command surface</text>
  <rect x="300" y="280" width="760" height="530" rx="14" fill="#1B2730" stroke="#3B4B57"/>
  <text x="336" y="340" fill="#EEF4F2" font-family="Arial" font-size="28" font-weight="700">Security vendor payout</text>
  <line x1="336" y1="390" x2="1024" y2="390" stroke="#3B4B57"/>
  <text x="336" y="444" fill="#AAB8BE" font-family="Arial" font-size="21">Intent</text>
  <text x="620" y="444" fill="#AAB8BE" font-family="Arial" font-size="21">Amount</text>
  <text x="820" y="444" fill="#AAB8BE" font-family="Arial" font-size="21">Result</text>
  <text x="336" y="500" fill="#EEF4F2" font-family="Arial" font-size="23">audit payout</text>
  <text x="620" y="500" fill="#EEF4F2" font-family="Arial" font-size="23">0.005 SETH</text>
  <rect x="820" y="468" width="144" height="46" rx="23" fill="#5E1F24"/>
  <text x="848" y="499" fill="#F87171" font-family="Arial" font-size="20">blocked</text>
  <rect x="1090" y="280" width="450" height="530" rx="14" fill="#202C35" stroke="#3B4B57"/>
  <text x="1124" y="340" fill="#EEF4F2" font-family="Arial" font-size="28" font-weight="700">Judge control</text>
  <rect x="1124" y="382" width="360" height="56" rx="8" fill="#121A21" stroke="#3B4B57"/>
  <text x="1148" y="418" fill="#EEF4F2" font-family="Arial" font-size="20">0.005</text>
  <rect x="1124" y="470" width="360" height="56" rx="8" fill="#121A21" stroke="#3B4B57"/>
  <text x="1148" y="506" fill="#EEF4F2" font-family="Arial" font-size="20">0xdead...beef</text>
  <rect x="1124" y="558" width="260" height="62" rx="8" fill="#7A252B"/>
  <text x="1152" y="598" fill="#FFFFFF" font-family="Arial" font-size="22" font-weight="700">Mutate payout</text>
</svg>
